HIERARCHY
ROOT Hips
{
	OFFSET 0.00000 0.00000 0.00000
	CHANNELS 6 Xposition Yposition Zposition Zrotation Yrotation Xrotation 
	JOINT LHipJoint
	{
		OFFSET 0 0 0
		CHANNELS 3 Zrotation Yrotation Xrotation
		JOINT LeftHip
		{
			OFFSET 3.13874 -1.57224 1.49786
			CHANNELS 3 Zrotation Yrotation Xrotation
			JOINT LeftKnee
			{
				OFFSET 2.10955 -5.79594 0.00000
				CHANNELS 3 Zrotation Yrotation Xrotation
				JOINT LeftAnkle
				{
					OFFSET 2.41843 -6.64458 0.00000
					CHANNELS 3 Zrotation Yrotation Xrotation
					JOINT LeftToe
					{
						OFFSET 0.04713 -0.12948 1.66229
						CHANNELS 3 Zrotation Yrotation Xrotation
						End Site
						{
							OFFSET 0.00000 -0.00000 0.85167
						}
					}
				}
			}
		}
	}
	JOINT RHipJoint
	{
		OFFSET 0 0 0
		CHANNELS 3 Zrotation Yrotation Xrotation
		JOINT RightHip
		{
			OFFSET -3.13988 -1.57224 1.49786
			CHANNELS 3 Zrotation Yrotation Xrotation
			JOINT RightKnee
			{
				OFFSET -2.15006 -5.90725 0.00000
				CHANNELS 3 Zrotation Yrotation Xrotation
				JOINT RightAnkle
				{
					OFFSET -2.34496 -6.44273 0.00000
					CHANNELS 3 Zrotation Yrotation Xrotation
					JOINT RightToe
					{
						OFFSET -0.08699 -0.23900 1.55223
						CHANNELS 3 Zrotation Yrotation Xrotation
						End Site
						{
							OFFSET -0.00000 -0.00000 0.80281
						}
					}
				}
			}
		}
	}
	JOINT lowerback
	{
		OFFSET 0 0 0
		CHANNELS 3 Zrotation Yrotation Xrotation
		JOINT Chest
		{
			OFFSET 0.01292 1.96517 -0.16495
			CHANNELS 3 Zrotation Yrotation Xrotation
			JOINT Chest2
			{
				OFFSET 0.02122 1.88666 0.19706
				CHANNELS 3 Zrotation Yrotation Xrotation
				JOINT lowerneck
				{
					OFFSET 0 0 0
					CHANNELS 3 Zrotation Yrotation Xrotation
					JOINT Neck
					{
						OFFSET -0.01683 1.81591 0.07903
						CHANNELS 3 Zrotation Yrotation Xrotation
						JOINT Head
						{
							OFFSET 0.00815 1.74013 -0.47700
							CHANNELS 3 Zrotation Yrotation Xrotation
							End Site
							{
								OFFSET -0.00204 1.83225 -0.16933
							}
						}
					}
				}
				JOINT LeftCollar
				{
					OFFSET 0 0 0
					CHANNELS 3 Zrotation Yrotation Xrotation
					JOINT LeftShoulder
					{
						OFFSET 3.38482 1.41533 0.19802
CHANNELS 3 Zrotation Xrotation Yrotation
						JOINT LeftElbow
						{
OFFSET 0 -4.327120 0.000000
CHANNELS 3 Zrotation Xrotation Yrotation
							JOINT LeftWrist
							{
OFFSET 0 -3.285870 -0.000000
CHANNELS 3 Zrotation Xrotation Yrotation
								JOINT lhand
								{
									OFFSET 0 0 0
CHANNELS 3 Zrotation Xrotation Yrotation
									JOINT LFingers
									{
OFFSET 0 -0.433160 -0.000000
CHANNELS 3 Zrotation Xrotation Yrotation
										End Site
										{
OFFSET 0 -0.349220 -0.000000
										}
									}
								}
								JOINT LThumb
								{
OFFSET 0 0.000000 0.000000
CHANNELS 3 Zrotation Xrotation Yrotation
									End Site
									{
OFFSET 0 -0.354560 0.354560
									}
								}
							}
						}
					}
				}
				JOINT RightCollar
				{
					OFFSET 0 0 0
					CHANNELS 3 Zrotation Yrotation Xrotation
					JOINT RightShoulder
					{
						OFFSET -3.09725 1.62858 -0.14144
CHANNELS 3 Zrotation Xrotation Yrotation
						JOINT RightElbow
						{
OFFSET 0 -4.291040 0.000000
CHANNELS 3 Zrotation Xrotation Yrotation
							JOINT RightWrist
							{
OFFSET 0 -3.227200 -0.000000
CHANNELS 3 Zrotation Xrotation Yrotation
								JOINT rhand
								{
									OFFSET 0 0 0
CHANNELS 3 Zrotation Xrotation Yrotation
									JOINT RFingers
									{
OFFSET 0 -0.543620 -0.000000
CHANNELS 3 Zrotation Xrotation Yrotation
										End Site
										{
OFFSET 0 -0.438280 -0.000000
										}
									}
								}
								JOINT RThumb
								{
OFFSET 0 0.000000 0.000000
CHANNELS 3 Zrotation Xrotation Yrotation
									End Site
									{
OFFSET 0 -0.444970 0.444970
									}
								}
							}
						}
					}
				}
			}
		}
	}
}
MOTION
Frames: 6
Frame Time: 0.008333333333333333
-7.271527 16.361356 4.861515 -27.008926 79.259958 -16.959207 0.000000 0.000000 0.000000 -23.786357 -21.663965 -4.343947 0.064670 1.639935 4.511503 1.298033 -0.003902 -21.557378 2.005941 -8.877718 -25.414054 0.000000 0.000000 0.000000 34.618739 7.307206 -8.019117 -1.267440 -7.118019 20.073082 -0.078349 -7.248262 -11.956224 -3.168776 10.920189 -32.058563 4.433128 0.635393 9.525436 2.203304 2.173404 -9.471457 -0.525449 0.773519 -15.953833 1.268626 -2.951093 -10.728457 -1.823455 -1.447858 46.367667 -1.089806 0.336764 19.839943 0.000000 0.000000 0.000000 12.878169 12.785184 -23.710825 19.694295 -30.271627 5.376650 35.415611 27.726259 -24.546836 0.000000 0.000000 0.000000 -7.125000 0.000000 0.000000 6.981814 59.108861 -2.410209 0.000000 0.000000 0.000000 -20.355201 19.198125 43.057976 -41.685152 -49.036880 -19.702525 -27.376830 -6.398489 16.569537 0.000000 0.000000 0.000000 7.125000 0.000000 0.000000 0.426307 48.503225 -0.036880
-7.220824 16.320892 4.860981 -25.312620 79.143773 -15.273744 0.000000 0.000000 0.000000 -24.235645 -21.481541 -4.261182 0.071834 1.727366 4.752857 1.338001 -0.878903 -21.610478 1.936048 -8.731373 -24.958678 0.000000 0.000000 0.000000 34.063840 7.831459 -9.294416 -1.583001 -7.925637 22.494756 -0.166189 -6.368471 -12.526684 -4.077595 12.239677 -36.618994 3.869874 0.646353 9.606664 2.162947 2.086300 -9.465031 -0.237513 0.791158 -16.011754 1.398638 -2.891957 -10.883898 -1.828915 -1.478087 46.013894 -1.126239 0.317618 19.634536 0.000000 0.000000 0.000000 12.690277 12.887329 -23.353480 19.970030 -30.606044 5.516186 35.612901 26.740731 -24.043838 0.000000 0.000000 0.000000 -7.125000 0.000000 0.000000 7.295101 58.588525 -2.432122 0.000000 0.000000 0.000000 -20.250080 19.047747 42.581624 -41.870689 -49.139947 -19.842644 -27.388104 -6.750415 16.503985 0.000000 0.000000 0.000000 7.125000 0.000000 0.000000 0.404846 48.432726 -0.034321
-7.179355 16.293619 4.864201 -23.470659 79.115289 -13.353056 0.000000 0.000000 0.000000 -24.644314 -21.273485 -4.449186 0.083482 1.861951 5.124423 1.342364 -1.649205 -21.431361 1.898214 -8.650720 -24.708701 0.000000 0.000000 0.000000 33.455342 8.731658 -10.524343 -1.874452 -8.594915 24.539098 -0.263805 -5.489626 -13.266038 -4.865000 13.221493 -40.218719 3.275885 0.646273 9.643770 2.106788 1.972807 -9.454326 0.057056 0.799812 -16.035857 1.477601 -2.832497 -11.088911 -1.821091 -1.506040 45.611229 -1.146849 0.288245 19.415397 0.000000 0.000000 0.000000 12.516267 12.824720 -23.069213 20.113164 -30.778437 5.589166 35.482314 26.059163 -24.268440 0.000000 0.000000 0.000000 -7.125000 0.000000 0.000000 7.105958 58.810668 -2.405480 0.000000 0.000000 0.000000 -20.137824 18.867327 42.232904 -41.764261 -49.080766 -19.762306 -27.449006 -7.076110 16.470680 0.000000 0.000000 0.000000 7.125000 0.000000 0.000000 0.340228 48.405617 -0.028561
-7.145020 16.278691 4.870104 -21.784998 79.142015 -11.518479 0.000000 0.000000 0.000000 -24.971244 -21.125944 -4.751516 0.096774 2.005460 5.520742 1.330131 -2.316187 -21.168410 1.886494 -8.625454 -24.630486 0.000000 0.000000 0.000000 32.871361 9.943098 -11.556896 -2.084773 -9.039913 25.920587 -0.376744 -4.562452 -14.173414 -5.419154 13.839757 -42.601347 2.751435 0.634266 9.644019 2.048109 1.852329 -9.436023 0.312424 0.797797 -16.024183 1.520574 -2.769517 -11.333810 -1.814885 -1.522567 45.162779 -1.159851 0.253854 19.182542 0.000000 0.000000 0.000000 12.354308 12.586571 -22.851538 20.106100 -30.769895 5.585546 35.272807 25.638076 -24.810840 0.000000 0.000000 0.000000 -7.125000 0.000000 0.000000 6.772066 59.372481 -2.383300 0.000000 0.000000 0.000000 -20.020996 18.654882 42.030758 -41.314809 -48.828714 -19.423580 -27.586141 -7.321075 16.460077 0.000000 0.000000 0.000000 7.125000 0.000000 0.000000 0.204873 48.415681 -0.017217
-7.115092 16.275113 4.877213 -20.491413 79.194301 -10.027024 0.000000 0.000000 0.000000 -25.200683 -21.115440 -5.024329 0.107911 2.118407 5.832935 1.320320 -2.863951 -20.970455 1.896073 -8.646092 -24.694264 0.000000 0.000000 0.000000 32.368965 11.391669 -12.263951 -2.163970 -9.199399 26.421144 -0.508725 -3.535342 -15.227053 -5.631080 14.060655 -43.481703 2.382890 0.612345 9.611159 1.997964 1.745791 -9.411250 0.487508 0.785770 -15.978851 1.532281 -2.701402 -11.606855 -1.819848 -1.518466 44.682395 -1.168889 0.219219 18.942820 0.000000 0.000000 0.000000 12.197386 12.191291 -22.695946 19.954264 -30.587080 5.508128 35.122685 25.455540 -25.383907 0.000000 0.000000 0.000000 -7.125000 0.000000 0.000000 6.493632 59.981341 -2.379349 0.000000 0.000000 0.000000 -19.911784 18.433378 41.992431 -40.518660 -48.372765 -18.826420 -27.793646 -7.450148 16.453446 0.000000 0.000000 0.000000 7.125000 0.000000 0.000000 0.001336 48.441036 -0.000119
-7.086355 16.281627 4.883560 -19.666748 79.254227 -8.973932 0.000000 0.000000 0.000000 -25.355533 -21.313035 -5.138742 0.113233 2.169856 5.975222 1.330869 -3.278927 -20.977508 1.917334 -8.691709 -24.835502 0.000000 0.000000 0.000000 31.961058 12.995812 -12.565439 -2.087150 -9.045046 25.936577 -0.660073 -2.381866 -16.391016 -5.426541 13.848511 -42.634221 2.212527 0.584974 9.540233 1.960285 1.667527 -9.386758 0.559231 0.765729 -15.904619 1.527520 -2.627979 -11.887441 -1.854149 -1.486326 44.183778 -1.183342 0.189065 18.699602 0.000000 0.000000 0.000000 12.041527 11.684764 -22.621356 19.687260 -30.263604 5.372827 34.951946 25.541834 -26.034346 0.000000 0.000000 0.000000 -7.125000 0.000000 0.000000 6.162663 60.668459 -2.358891 0.000000 0.000000 0.000000 -19.830141 18.250042 42.129875 -39.428423 -47.727281 -18.015207 -28.034390 -7.462358 16.421014 0.000000 0.000000 0.000000 7.125000 0.000000 0.000000 -0.238777 48.443285 0.020262
